name C:\Users\u0150099\Documents\master_thesis\3dpredictsim\Results\debug\Fal_s1_mtjc2_sc_cspx10_oy2_ATx70_MTc2_MTPm_k1_d01_MTJm_nl_MG_exp5_table_d01_PF_Natali2010_x3_ls146_ig21_wAk5e+04_wa2e+03_wpMnD1e+03.mot
datacolumns 128
datarows 4
range 0.00000000 0.03246728
endheader
time	pelvis_tilt	pelvis_list	pelvis_rotation	pelvis_tx	pelvis_ty	pelvis_tz	hip_flexion_l	hip_adduction_l	hip_rotation_l	hip_flexion_r	hip_adduction_r	hip_rotation_r	knee_angle_l	knee_angle_r	ankle_angle_l	ankle_angle_r	subtalar_angle_l	subtalar_angle_r	mtj_angle_l	mtj_angle_r	mtp_angle_l	mtp_angle_r	lumbar_extension	lumbar_bending	lumbar_rotation	arm_flex_l	arm_add_l	arm_rot_l	arm_flex_r	arm_add_r	arm_rot_r	elbow_flex_l	elbow_flex_r	pro_sup_l	pro_sup_r	glut_med1_l/activation	glut_med2_l/activation	glut_med3_l/activation	glut_min1_l/activation	glut_min2_l/activation	glut_min3_l/activation	semimem_l/activation	semiten_l/activation	bifemlh_l/activation	bifemsh_l/activation	sar_l/activation	add_long_l/activation	add_brev_l/activation	add_mag1_l/activation	add_mag2_l/activation	add_mag3_l/activation	tfl_l/activation	pect_l/activation	grac_l/activation	glut_max1_l/activation	glut_max2_l/activation	glut_max3_l/activation	iliacus_l/activation	psoas_l/activation	quad_fem_l/activation	gem_l/activation	peri_l/activation	rect_fem_l/activation	vas_med_l/activation	vas_int_l/activation	vas_lat_l/activation	med_gas_l/activation	lat_gas_l/activation	soleus_l/activation	tib_post_l/activation	flex_dig_l/activation	flex_hal_l/activation	tib_ant_l/activation	per_brev_l/activation	per_long_l/activation	per_tert_l/activation	ext_dig_l/activation	ext_hal_l/activation	ercspn_l/activation	intobl_l/activation	extobl_l/activation	glut_med1_r/activation	glut_med2_r/activation	glut_med3_r/activation	glut_min1_r/activation	glut_min2_r/activation	glut_min3_r/activation	semimem_r/activation	semiten_r/activation	bifemlh_r/activation	bifemsh_r/activation	sar_r/activation	add_long_r/activation	add_brev_r/activation	add_mag1_r/activation	add_mag2_r/activation	add_mag3_r/activation	tfl_r/activation	pect_r/activation	grac_r/activation	glut_max1_r/activation	glut_max2_r/activation	glut_max3_r/activation	iliacus_r/activation	psoas_r/activation	quad_fem_r/activation	gem_r/activation	peri_r/activation	rect_fem_r/activation	vas_med_r/activation	vas_int_r/activation	vas_lat_r/activation	med_gas_r/activation	lat_gas_r/activation	soleus_r/activation	tib_post_r/activation	flex_dig_r/activation	flex_hal_r/activation	tib_ant_r/activation	per_brev_r/activation	per_long_r/activation	per_tert_r/activation	ext_dig_r/activation	ext_hal_r/activation	ercspn_r/activation	intobl_r/activation	extobl_r/activation	
          0.00000000	         -2.92708910	         -1.48547067	          3.17275591	          0.00000000	          0.90823160	         -0.00343253	        -16.73073946	          1.78855668	         10.21604218	         29.23646352	          3.06036031	         -2.10126732	        -10.80352858	        -10.63712196	          5.89647223	          8.48382860	          0.73371418	         -1.22337961	         -1.69478562	          2.60514279	         17.83874203	         -7.20520018	         -3.96172613	          0.53359248	         -1.53333320	          2.07415250	        -14.24233260	         19.34428655	         -3.42501766	        -13.45180642	          7.23934866	         47.34862476	         22.19521338	         86.51662706	         86.51662706	          0.38809186	          0.05901873	          0.05000003	          0.56717347	          0.17887683	          0.07350724	          0.05000127	          0.05000015	          0.05000010	          0.06966435	          0.09705974	          0.05000019	          0.05000012	          0.05000025	          0.05000079	          0.05000062	          0.47402778	          0.05000093	          0.05000025	          0.05000090	          0.05000052	          0.05000043	          0.39505897	          0.76870848	          0.05000004	          0.05000022	          0.05000006	          0.36326855	          0.11449814	          0.12351572	          0.09922478	          0.39861801	          0.46271171	          0.31722265	          0.38802827	          0.28712413	          0.45979935	          0.05000000	          0.06966406	          0.19637862	          0.05000007	          0.05000002	          0.09324073	          0.05000001	          0.05000000	          0.05000001	          0.06759865	          0.05000019	          0.05901867	          0.05000009	          0.05000014	          0.05000047	          0.26569400	          0.06966420	          0.30121451	          0.06554784	          0.05000086	          0.11740209	          0.15464023	          0.10813830	          0.14985341	          0.15156928	          0.05000979	          0.05000472	          0.12195033	          0.05901901	          0.06065212	          0.11523234	          0.05000009	          0.05000016	          0.16818744	          0.05000055	          0.05000019	          0.05000010	          0.05000162	          0.05000143	          0.05000108	          0.06914179	          0.05000013	          0.05000003	          0.05000016	          0.09554600	          0.05223501	          0.27575563	          0.08237916	          0.11730562	          0.29899933	          0.56413206	          0.28991239	          0.06050531	          0.07754411	          0.10650354	
          0.01082243	         -2.92974088	         -1.56097884	          3.47290691	          0.01702951	          0.90753882	         -0.00327571	        -16.94991501	          1.45888549	         10.07226598	         28.87228984	          3.39960943	         -2.03548005	        -12.06341340	        -10.84449836	          5.02618974	          8.08820116	          1.63975155	         -1.27384400	         -2.81070469	          2.65948954	         20.68222021	         -7.19260107	         -3.79689055	          0.69467802	         -1.62006852	          1.52641000	        -14.20726479	         19.22480383	         -4.29577045	        -13.45110756	          6.53393986	         49.48546395	         21.79166279	         86.51662706	         86.51662706	          0.32878744	          0.05000008	          0.05000001	          0.48050340	          0.15154257	          0.06227459	          0.05000132	          0.05000014	          0.05000009	          0.05901892	          0.08222816	          0.09884791	          0.05003712	          0.05000045	          0.05000121	          0.05000084	          0.45431301	          0.05904746	          0.05000019	          0.05000042	          0.05000027	          0.05000029	          0.33468975	          0.71365177	          0.05000002	          0.05000012	          0.05000006	          0.34211590	          0.14292361	          0.14611680	          0.12221079	          0.33770493	          0.39200445	          0.26874764	          0.33047904	          0.24324880	          0.38953777	          0.05000000	          0.05901867	          0.16636986	          0.05000004	          0.05000001	          0.07899256	          0.05000001	          0.05000057	          0.07020988	          0.05901868	          0.05901870	          0.05000013	          0.05901873	          0.05901872	          0.05901855	          0.23346431	          0.05901883	          0.26416140	          0.05901871	          0.05000028	          0.13523286	          0.19179578	          0.09161379	          0.12695484	          0.16622043	          0.05000008	          0.07658846	          0.10331547	          0.05000047	          0.05138390	          0.18240119	          0.05566276	          0.05000037	          0.34927170	          0.19843394	          0.10268531	          0.05000003	          0.05000005	          0.05000005	          0.05000005	          0.07095789	          0.05001060	          0.05000003	          0.05000140	          0.08222960	          0.08222943	          0.28186890	          0.07434651	          0.15637740	          0.31816633	          0.59245688	          0.31047252	          0.05125946	          0.06569454	          0.09022866	
          0.02164485	         -2.93017649	         -1.64789534	          3.75861703	          0.03434467	          0.90688933	         -0.00309086	        -17.08551093	          1.10469120	          9.87898427	         28.51362166	          3.69789832	         -1.95253394	        -13.41822223	        -11.71534884	          3.95159056	          7.25281740	          2.59476365	         -1.30033790	         -4.02288729	          2.65243891	         23.72856240	         -7.12787727	         -3.61710768	          0.86639083	         -1.70108318	          0.91514377	        -14.16101715	         19.05742254	         -5.18205735	        -13.46738135	          6.06891857	         51.58899931	         21.39509689	         86.51662706	         86.51662706	          0.27854522	          0.05901835	          0.05901865	          0.40707738	          0.12838527	          0.05275998	          0.05000271	          0.05000042	          0.05000104	          0.05000025	          0.06966304	          0.19977576	          0.12075570	          0.05901878	          0.05901627	          0.05901966	          0.38488947	          0.05002489	          0.05000719	          0.05061702	          0.05901086	          0.05901795	          0.28354558	          0.65021119	          0.05901865	          0.05901860	          0.05000050	          0.29839091	          0.15843790	          0.16885213	          0.13401188	          0.28610000	          0.33210198	          0.22768011	          0.27997831	          0.20607782	          0.33001229	          0.05000001	          0.05000001	          0.14094677	          0.05000002	          0.05000001	          0.06692166	          0.06361841	          0.06774471	          0.06966395	          0.05000001	          0.05000005	          0.13709153	          0.05000005	          0.05000005	          0.05000007	          0.19778848	          0.05000014	          0.22379472	          0.05000004	          0.06966422	          0.11456822	          0.31981220	          0.33442034	          0.23011540	          0.20085649	          0.05000244	          0.06966639	          0.08752786	          0.09647551	          0.12265218	          0.19278119	          0.06966404	          0.06966412	          0.55512428	          0.16811115	          0.08699393	          0.06966362	          0.07992703	          0.08521720	          0.05953485	          0.06966406	          0.06966409	          0.06751216	          0.05000001	          0.06966408	          0.06966399	          0.34631283	          0.13647368	          0.13271354	          0.47446093	          0.62115149	          0.26302907	          0.05000000	          0.05565572	          0.07644076	
          0.03246728	         -2.92895601	         -1.77100392	          4.02811489	          0.05186357	          0.90630670	         -0.00290999	        -17.11606534	          0.71535098	          9.64500381	         28.09969397	          3.92237403	         -1.80066094	        -14.88754580	        -12.82735021	          2.62652359	          6.25681475	          3.54329394	         -1.29499911	         -5.27346127	          2.73895842	         26.89878148	         -6.99745408	         -3.42520307	          1.07602401	         -1.77404193	          0.25570315	        -14.09717990	         18.86224162	         -6.05608515	        -13.50587719	          5.84106043	         53.64265735	         20.96787323	         86.51662706	         86.51662706	          0.26104032	          0.05000002	          0.05000000	          0.34487598	          0.10876666	          0.05000005	          0.05000137	          0.05000010	          0.05000004	          0.05000081	          0.05901878	          0.24398423	          0.11812933	          0.05000027	          0.05000043	          0.05000102	          0.45431170	          0.06966309	          0.05000015	          0.05000026	          0.05000014	          0.05000011	          0.24021682	          0.68699675	          0.05000001	          0.05000007	          0.05000001	          0.25279360	          0.13422693	          0.14304974	          0.11353346	          0.24238085	          0.28135324	          0.19288815	          0.23719463	          0.17458693	          0.27958291	          0.11891244	          0.09571828	          0.11940866	          0.05000009	          0.05000007	          0.05669533	          0.09270430	          0.05739259	          0.05901856	          0.35028827	          0.35394079	          0.40035644	          0.44784492	          0.31260135	          0.25753767	          0.17043580	          0.14341558	          0.19536729	          0.08528164	          0.05901894	          0.09706103	          0.27094160	          0.28331740	          0.19495149	          0.25347919	          0.05000019	          0.05902288	          0.19904399	          0.24939677	          0.22129345	          0.26107988	          0.05901872	          0.05901872	          0.47029537	          0.14242203	          0.11911218	          0.05901828	          0.06771333	          0.07219511	          0.05043730	          0.05901865	          0.05901867	          0.05719558	          0.06966379	          0.05901867	          0.05901860	          0.40832060	          0.11561905	          0.11243668	          0.40195824	          0.77993052	          0.57190065	          0.07985667	          0.09705531	          0.06475979	
